# Blender 4.5.3 LTS
# www.blender.org
mtllib BranchSnow.mtl
o Plane.002
v -1.811941 1.124402 1.522089
v -1.087165 0.479173 1.522089
v -0.362388 0.178683 1.522089
v 0.362388 0.042500 1.522089
v 1.087165 0.000000 1.522089
v 1.811941 0.086534 1.522089
v 1.811941 0.042511 -1.522089
v 1.087165 0.000000 -1.522089
v 0.362388 0.042500 -1.522089
v -0.362388 0.178683 -1.522089
v -1.087165 0.479173 -1.522089
v -1.811941 1.124402 -1.522089
v -2.536718 1.577983 0.000000
v 2.536718 -0.312163 0.000000
v -1.811941 1.254296 0.000000
v -1.087165 0.661602 0.000000
v -0.362388 0.322169 0.000000
v 0.362388 0.116255 0.000000
v 1.087165 -0.045954 0.000000
v 1.811941 -0.214740 0.000000
v 2.536718 -0.206518 -0.761045
v -1.811941 1.259657 -0.761045
v -1.087165 0.610929 -0.761045
v -0.362388 0.281536 -0.761045
v 0.362388 0.094111 -0.761045
v 1.087165 -0.019878 -0.761045
v 1.811941 -0.137716 -0.761045
v -2.536718 1.605054 -0.761045
v -2.536718 1.605054 0.761045
v 2.536718 -0.206518 0.761045
v -1.811941 1.259657 0.761045
v -1.087165 0.610929 0.761045
v -0.362388 0.281536 0.761045
v 0.362388 0.094111 0.761045
v 1.087165 -0.019878 0.761045
v 1.811941 -0.137716 0.761045
v 2.463006 0.150573 1.582978
v 2.515768 0.037544 -1.525015
v -1.639293 1.687190 1.519634
v -0.914517 1.041960 1.519634
v -0.189740 0.741471 1.519634
v 0.535037 0.605287 1.519634
v 1.259813 0.562788 1.519634
v 1.984590 0.649322 1.519634
v 1.984590 0.605299 -1.524544
v 1.259813 0.562788 -1.524544
v 0.535037 0.605287 -1.524544
v -0.189740 0.741471 -1.524544
v -0.914517 1.041960 -1.524544
v -1.639293 1.687190 -1.524544
v -1.639293 1.822444 -0.763499
v -0.914517 1.173717 -0.763499
v -0.189740 0.844323 -0.763499
v 0.535037 0.656899 -0.763499
v 1.259813 0.542909 -0.763499
v 1.984590 0.425071 -0.763499
v -2.364070 2.167842 -0.763499
v -2.364070 2.140771 -0.002455
v 2.709366 0.356269 0.758590
v 2.709366 0.250625 -0.002455
v -1.639293 1.822444 0.758590
v -1.639293 1.817083 -0.002455
v -0.914517 1.173717 0.758590
v -0.914517 1.224389 -0.002455
v -0.189740 0.844323 0.758590
v -0.189740 0.884956 -0.002455
v 0.535037 0.656899 0.758590
v 0.535037 0.679043 -0.002455
v 1.259813 0.542909 0.758590
v 1.259813 0.516834 -0.002455
v 1.984590 0.425071 0.758590
v 1.984590 0.348047 -0.002455
v 2.709366 0.356269 -0.763499
v -2.364070 2.167842 0.758590
v 2.635654 0.713360 1.580524
v 2.688416 0.600331 -1.527470
vn -0.6603 -0.7397 0.1298
vn -0.3946 -0.9081 0.1400
vn -0.2168 -0.9712 0.0986
vn -0.1073 -0.9940 0.0207
vn -0.0515 -0.9902 -0.1302
vn -0.1936 -0.9788 0.0663
vn -0.1872 -0.9823 0.0025
vn -0.2617 -0.9643 -0.0398
vn -0.4183 -0.9067 -0.0544
vn -0.6503 -0.7593 -0.0226
vn -0.4190 -0.9078 0.0193
vn -0.1131 -0.9865 0.1184
vn -0.1936 -0.9788 -0.0663
vn -0.1872 -0.9823 -0.0025
vn -0.2617 -0.9643 0.0398
vn -0.4183 -0.9067 0.0544
vn -0.6503 -0.7593 0.0226
vn -0.4190 -0.9078 -0.0193
vn -0.1131 -0.9865 -0.1184
vn -0.6603 -0.7397 -0.1298
vn -0.3946 -0.9081 -0.1400
vn -0.2168 -0.9712 -0.0986
vn -0.1073 -0.9940 -0.0207
vn -0.0213 -0.9872 0.1583
vn -0.0185 -0.9388 0.3439
vn -0.0502 -0.9624 -0.2671
vn 0.6603 0.7397 -0.1298
vn 0.3946 0.9081 -0.1400
vn 0.2168 0.9712 -0.0986
vn 0.1073 0.9940 -0.0207
vn 0.0515 0.9902 0.1302
vn 0.1936 0.9788 -0.0663
vn 0.1872 0.9823 -0.0025
vn 0.2617 0.9643 0.0398
vn 0.4183 0.9067 0.0544
vn 0.6503 0.7593 0.0226
vn 0.4190 0.9078 -0.0193
vn 0.1131 0.9865 -0.1184
vn 0.1936 0.9788 0.0663
vn 0.1872 0.9823 0.0025
vn 0.2617 0.9643 -0.0398
vn 0.4183 0.9067 -0.0544
vn 0.6503 0.7593 -0.0226
vn 0.4190 0.9078 0.0193
vn 0.1131 0.9865 0.1184
vn 0.6603 0.7397 0.1298
vn 0.3946 0.9081 0.1400
vn 0.2168 0.9712 0.0986
vn 0.1073 0.9940 0.0207
vn 0.0213 0.9872 -0.1583
vn 0.0185 0.9388 -0.3439
vn 0.0502 0.9624 0.2671
vn 0.0003 -0.0044 -1.0000
vn -0.0018 -0.0038 -1.0000
vn -0.0003 -0.0043 -1.0000
vn -0.0008 -0.0041 -1.0000
vn -0.0964 0.0339 0.9948
vn 0.0031 0.0034 1.0000
vn -0.9560 0.2932 -0.0104
vn -0.0016 -0.0039 -1.0000
vn 0.9353 -0.2860 0.2081
vn 0.0016 0.0039 1.0000
vn 0.0018 0.0038 1.0000
vn -0.9560 0.2933 0.0104
vn 0.9552 -0.2932 -0.0407
vn -0.9547 0.2931 0.0521
vn -0.0031 -0.0034 -1.0000
vn -0.0042 -0.0031 -1.0000
vn 0.0008 0.0041 1.0000
vn 0.9553 -0.2929 0.0407
vn -0.9548 0.2927 -0.0520
vn 0.9491 -0.2917 -0.1192
vn 0.0003 0.0043 1.0000
vn -0.0005 0.0045 1.0000
vt 0.750000 0.857143
vt 1.000000 0.857143
vt 1.000000 0.714286
vt 0.750000 0.714286
vt 1.000000 0.571429
vt 0.750000 0.571429
vt 1.000000 0.428571
vt 0.750000 0.428571
vt 1.000000 0.285714
vt 0.750000 0.285714
vt 1.000000 0.142857
vt 0.750000 0.142857
vt 0.250000 0.285714
vt 0.500000 0.285714
vt 0.500000 0.142857
vt 0.250000 0.142857
vt 0.250000 0.428571
vt 0.500000 0.428571
vt 0.250000 0.571429
vt 0.500000 0.571429
vt 0.250000 0.714286
vt 0.500000 0.714286
vt 0.250000 0.857143
vt 0.500000 0.857143
vt 0.250000 1.000000
vt 0.500000 1.000000
vt 0.500000 0.000000
vt 0.250000 -0.000000
vt 0.750000 1.000000
vt 0.750000 0.000000
vt -0.000000 0.857143
vt 0.000000 0.714286
vt -0.000000 0.571428
vt 0.000000 0.428571
vt -0.000000 0.285714
vt -0.000000 0.142857
vt 0.000106 0.000000
vt 1.000000 0.000000
s 0
usemtl Material.002
f 22/1/1 12/2/1 11/3/1 23/4/1
f 23/4/2 11/3/2 10/5/2 24/6/2
f 24/6/3 10/5/3 9/7/3 25/8/3
f 25/8/4 9/7/4 8/9/4 26/10/4
f 26/10/5 8/9/5 7/11/5 27/12/5
f 35/13/6 19/14/6 20/15/6 36/16/6
f 34/17/7 18/18/7 19/14/7 35/13/7
f 33/19/8 17/20/8 18/18/8 34/17/8
f 32/21/9 16/22/9 17/20/9 33/19/9
f 31/23/10 15/24/10 16/22/10 32/21/10
f 29/25/11 13/26/11 15/24/11 31/23/11
f 36/16/12 20/15/12 14/27/12 30/28/12
f 19/14/13 26/10/13 27/12/13 20/15/13
f 18/18/14 25/8/14 26/10/14 19/14/14
f 17/20/15 24/6/15 25/8/15 18/18/15
f 16/22/16 23/4/16 24/6/16 17/20/16
f 15/24/17 22/1/17 23/4/17 16/22/17
f 13/26/18 28/29/18 22/1/18 15/24/18
f 20/15/19 27/12/19 21/30/19 14/27/19
f 1/31/20 31/23/20 32/21/20 2/32/20
f 2/32/21 32/21/21 33/19/21 3/33/21
f 3/33/22 33/19/22 34/17/22 4/34/22
f 4/34/23 34/17/23 35/13/23 5/35/23
f 5/35/24 35/13/24 36/16/24 6/36/24
f 37/37/25 6/36/25 36/16/25 30/28/25
f 7/11/26 38/38/26 21/30/26 27/12/26
f 51/1/27 52/4/27 49/3/27 50/2/27
f 52/4/28 53/6/28 48/5/28 49/3/28
f 53/6/29 54/8/29 47/7/29 48/5/29
f 54/8/30 55/10/30 46/9/30 47/7/30
f 55/10/31 56/12/31 45/11/31 46/9/31
f 69/13/32 71/16/32 72/15/32 70/14/32
f 67/17/33 69/13/33 70/14/33 68/18/33
f 65/19/34 67/17/34 68/18/34 66/20/34
f 63/21/35 65/19/35 66/20/35 64/22/35
f 61/23/36 63/21/36 64/22/36 62/24/36
f 74/25/37 61/23/37 62/24/37 58/26/37
f 71/16/38 59/28/38 60/27/38 72/15/38
f 70/14/39 72/15/39 56/12/39 55/10/39
f 68/18/40 70/14/40 55/10/40 54/8/40
f 66/20/41 68/18/41 54/8/41 53/6/41
f 64/22/42 66/20/42 53/6/42 52/4/42
f 62/24/43 64/22/43 52/4/43 51/1/43
f 58/26/44 62/24/44 51/1/44 57/29/44
f 72/15/45 60/27/45 73/30/45 56/12/45
f 39/31/46 40/32/46 63/21/46 61/23/46
f 40/32/47 41/33/47 65/19/47 63/21/47
f 41/33/48 42/34/48 67/17/48 65/19/48
f 42/34/49 43/35/49 69/13/49 67/17/49
f 43/35/50 44/36/50 71/16/50 69/13/50
f 75/37/51 59/28/51 71/16/51 44/36/51
f 45/11/52 56/12/52 73/30/52 76/38/52
f 7/11/53 8/9/53 46/9/53 45/11/53
f 22/1/54 28/29/54 57/29/54 51/1/54
f 8/9/55 9/7/55 47/7/55 46/9/55
f 9/7/56 10/5/56 48/5/56 47/7/56
f 6/36/57 37/37/57 75/37/57 44/36/57
f 1/31/58 2/32/58 40/32/58 39/31/58
f 13/26/59 29/25/59 74/25/59 58/26/59
f 10/5/60 11/3/60 49/3/60 48/5/60
f 37/37/61 30/28/61 59/28/61 75/37/61
f 2/32/62 3/33/62 41/33/62 40/32/62
f 29/25/63 31/23/63 61/23/63 74/25/63
f 28/29/64 13/26/64 58/26/64 57/29/64
f 14/27/65 21/30/65 73/30/65 60/27/65
f 31/23/66 1/31/66 39/31/66 61/23/66
f 11/3/67 12/2/67 50/2/67 49/3/67
f 38/38/68 7/11/68 45/11/68 76/38/68
f 3/33/69 4/34/69 42/34/69 41/33/69
f 30/28/70 14/27/70 60/27/70 59/28/70
f 12/2/71 22/1/71 51/1/71 50/2/71
f 21/30/72 38/38/72 76/38/72 73/30/72
f 4/34/73 5/35/73 43/35/73 42/34/73
f 5/35/74 6/36/74 44/36/74 43/35/74
