# Blender 4.5.3 LTS
# www.blender.org
mtllib Tree.mtl
o Circle
v 0.000000 0.000000 -1.000000
v -0.258819 0.000000 -0.965926
v -0.500000 0.000000 -0.866025
v -0.707107 0.000000 -0.707107
v -0.866025 0.000000 -0.500000
v -0.965926 0.000000 -0.258819
v -1.000000 0.000000 0.000000
v -0.965926 0.000000 0.258819
v -0.866025 0.000000 0.500000
v -0.707107 0.000000 0.707107
v -0.500000 0.000000 0.866025
v -0.258819 0.000000 0.965926
v 0.000000 0.000000 1.000000
v 0.258819 0.000000 0.965926
v 0.500000 0.000000 0.866025
v 0.707107 0.000000 0.707107
v 0.866025 0.000000 0.500000
v 0.965926 0.000000 0.258819
v 1.000000 0.000000 0.000000
v 0.965926 0.000000 -0.258819
v 0.866025 0.000000 -0.500000
v 0.707107 0.000000 -0.707107
v 0.500000 0.000000 -0.866025
v 0.258819 0.000000 -0.965926
v 0.000000 0.000000 -1.000000
v -0.258819 0.000000 -0.965926
v -0.500000 0.000000 -0.866025
v -0.707107 0.000000 -0.707107
v -0.866025 0.000000 -0.500000
v -0.965926 0.000000 -0.258819
v -1.000000 0.000000 0.000000
v -0.965926 0.000000 0.258819
v -0.866025 0.000000 0.500000
v -0.707107 0.000000 0.707107
v -0.500000 0.000000 0.866025
v -0.258819 0.000000 0.965926
v 0.000000 0.000000 1.000000
v 0.258819 0.000000 0.965926
v 0.500000 0.000000 0.866025
v 0.707107 0.000000 0.707107
v 0.866025 0.000000 0.500000
v 0.965926 0.000000 0.258819
v 1.000000 0.000000 0.000000
v 0.965926 0.000000 -0.258819
v 0.866025 0.000000 -0.500000
v 0.707107 0.000000 -0.707107
v 0.500000 0.000000 -0.866025
v 0.258819 0.000000 -0.965926
v 0.000000 20.252121 -0.240673
v -0.062291 20.252121 -0.232473
v -0.120337 20.252121 -0.208429
v -0.170182 20.252121 -0.170182
v -0.208429 20.252121 -0.120337
v -0.232473 20.252121 -0.062291
v -0.240673 20.252121 0.000000
v -0.232473 20.252121 0.062291
v -0.208429 20.252121 0.120337
v -0.170182 20.252121 0.170182
v -0.120337 20.252121 0.208429
v -0.062291 20.252121 0.232473
v 0.000000 20.252121 0.240673
v 0.062291 20.252121 0.232473
v 0.120337 20.252121 0.208429
v 0.170182 20.252121 0.170182
v 0.208429 20.252121 0.120337
v 0.232473 20.252121 0.062291
v 0.240673 20.252121 0.000000
v 0.232473 20.252121 -0.062291
v 0.208429 20.252121 -0.120337
v 0.170182 20.252121 -0.170182
v 0.120337 20.252121 -0.208429
v 0.062291 20.252121 -0.232473
vn -0.0000 -1.0000 -0.0000
vn 0.9232 0.0371 0.3824
vn -0.0000 1.0000 -0.0000
vn -0.6083 0.0371 0.7928
vn -0.6083 0.0371 -0.7928
vn 0.9908 0.0371 0.1304
vn -0.3824 0.0371 0.9232
vn -0.7928 0.0371 -0.6083
vn 0.9908 0.0371 -0.1304
vn -0.1304 0.0371 0.9908
vn -0.9232 0.0371 -0.3824
vn 0.9232 0.0371 -0.3824
vn 0.1304 0.0371 0.9908
vn -0.9908 0.0371 -0.1304
vn 0.7928 0.0371 -0.6083
vn 0.3824 0.0371 0.9232
vn -0.9908 0.0371 0.1304
vn 0.6083 0.0371 -0.7928
vn 0.6083 0.0371 0.7928
vn -0.9232 0.0371 0.3824
vn 0.3824 0.0371 -0.9232
vn -0.1304 0.0371 -0.9908
vn 0.7928 0.0371 0.6083
vn -0.7928 0.0371 0.6083
vn 0.1304 0.0371 -0.9908
vn -0.3824 0.0371 -0.9232
vt 0.487220 0.547695
vt 0.500000 0.549378
vt 0.512780 0.547695
vt 0.524689 0.542762
vt 0.534915 0.534915
vt 0.542762 0.524689
vt 0.547695 0.512780
vt 0.549378 0.500000
vt 0.547695 0.487220
vt 0.542762 0.475311
vt 0.534915 0.465085
vt 0.524689 0.457238
vt 0.512780 0.452305
vt 0.500000 0.450622
vt 0.487220 0.452305
vt 0.475311 0.457238
vt 0.465085 0.465085
vt 0.457238 0.475311
vt 0.452305 0.487220
vt 0.450622 0.500000
vt 0.452305 0.512780
vt 0.457238 0.524689
vt 0.465085 0.534915
vt 0.475311 0.542762
vt 0.475311 0.000000
vt 0.487220 0.000000
vt 0.496924 1.000000
vt 0.494058 1.000000
vt 0.496924 0.511479
vt 0.494058 0.510292
vt 0.491597 0.508403
vt 0.489708 0.505942
vt 0.488521 0.503076
vt 0.488116 0.500000
vt 0.488521 0.496924
vt 0.489708 0.494058
vt 0.491597 0.491597
vt 0.494058 0.489708
vt 0.496924 0.488521
vt 0.500000 0.488116
vt 0.503076 0.488521
vt 0.505942 0.489708
vt 0.508403 0.491597
vt 0.510292 0.494058
vt 0.511479 0.496924
vt 0.511884 0.500000
vt 0.511479 0.503076
vt 0.510292 0.505942
vt 0.508403 0.508403
vt 0.505942 0.510292
vt 0.503076 0.511479
vt 0.500000 0.511884
vt 0.465085 0.000000
vt 0.491597 1.000000
vt 0.500000 0.000000
vt 0.500000 1.000000
vt 0.534915 0.000000
vt 0.524689 0.000000
vt 0.505942 1.000000
vt 0.508403 1.000000
vt 0.512780 0.000000
vt 0.503076 1.000000
s 0
f 2/1/1 1/2/1 24/3/1 23/4/1 22/5/1 21/6/1 20/7/1 19/8/1 18/9/1 17/10/1 16/11/1 15/12/1 14/13/1 13/14/1 12/15/1 11/16/1 10/17/1 9/18/1 8/19/1 7/20/1 6/21/1 5/22/1 4/23/1 3/24/1
f 41/25/2 42/26/2 66/27/2 65/28/2
f 4/23/3 5/22/3 29/22/3 28/23/3
f 19/8/3 20/7/3 44/7/3 43/8/3
f 12/15/3 13/14/3 37/14/3 36/15/3
f 5/22/3 6/21/3 30/21/3 29/22/3
f 20/7/3 21/6/3 45/6/3 44/7/3
f 13/14/3 14/13/3 38/13/3 37/14/3
f 6/21/3 7/20/3 31/20/3 30/21/3
f 21/6/3 22/5/3 46/5/3 45/6/3
f 14/13/3 15/12/3 39/12/3 38/13/3
f 7/20/3 8/19/3 32/19/3 31/20/3
f 22/5/3 23/4/3 47/4/3 46/5/3
f 15/12/3 16/11/3 40/11/3 39/12/3
f 8/19/3 9/18/3 33/18/3 32/19/3
f 23/4/3 24/3/3 48/3/3 47/4/3
f 1/2/3 2/1/3 26/1/3 25/2/3
f 16/11/3 17/10/3 41/10/3 40/11/3
f 9/18/3 10/17/3 34/17/3 33/18/3
f 24/3/3 1/2/3 25/2/3 48/3/3
f 2/1/3 3/24/3 27/24/3 26/1/3
f 17/10/3 18/9/3 42/9/3 41/10/3
f 10/17/3 11/16/3 35/16/3 34/17/3
f 3/24/3 4/23/3 28/23/3 27/24/3
f 18/9/3 19/8/3 43/8/3 42/9/3
f 11/16/3 12/15/3 36/15/3 35/16/3
f 50/29/3 51/30/3 52/31/3 53/32/3 54/33/3 55/34/3 56/35/3 57/36/3 58/37/3 59/38/3 60/39/3 61/40/3 62/41/3 63/42/3 64/43/3 65/44/3 66/45/3 67/46/3 68/47/3 69/48/3 70/49/3 71/50/3 72/51/3 49/52/3
f 34/53/4 35/25/4 59/28/4 58/54/4
f 27/25/5 28/53/5 52/54/5 51/28/5
f 42/26/6 43/55/6 67/56/6 66/27/6
f 35/25/7 36/26/7 60/27/7 59/28/7
f 28/57/8 29/58/8 53/59/8 52/60/8
f 43/55/9 44/61/9 68/62/9 67/56/9
f 36/26/10 37/55/10 61/56/10 60/27/10
f 29/58/11 30/61/11 54/62/11 53/59/11
f 44/61/12 45/58/12 69/59/12 68/62/12
f 37/55/13 38/61/13 62/62/13 61/56/13
f 30/61/14 31/55/14 55/56/14 54/62/14
f 45/58/15 46/57/15 70/60/15 69/59/15
f 38/61/16 39/58/16 63/59/16 62/62/16
f 31/55/17 32/26/17 56/27/17 55/56/17
f 46/57/18 47/58/18 71/59/18 70/60/18
f 39/58/19 40/57/19 64/60/19 63/59/19
f 32/26/20 33/25/20 57/28/20 56/27/20
f 47/58/21 48/61/21 72/62/21 71/59/21
f 25/55/22 26/26/22 50/27/22 49/56/22
f 40/53/23 41/25/23 65/28/23 64/54/23
f 33/25/24 34/53/24 58/54/24 57/28/24
f 48/61/25 25/55/25 49/56/25 72/62/25
f 26/26/26 27/25/26 51/28/26 50/27/26
